<?xml version="1.0" encoding="UTF-8"?>
<svg width="512" height="512" viewBox="0 0 24 24" fill="none" xmlns="http://www.w3.org/2000/svg">
  <path d="M19.5 6.5H4.5C4.22386 6.5 4 6.72386 4 7V17C4 17.2761 4.22386 17.5 4.5 17.5H19.5C19.7761 17.5 20 17.2761 20 17V7C20 6.72386 19.7761 6.5 19.5 6.5Z" stroke="#2E3A50" stroke-width="1.5" stroke-linecap="round" stroke-linejoin="round"/>
  <path d="M16.5 13.5C17.0523 13.5 17.5 13.0523 17.5 12.5C17.5 11.9477 17.0523 11.5 16.5 11.5C15.9477 11.5 15.5 11.9477 15.5 12.5C15.5 13.0523 15.9477 13.5 16.5 13.5Z" fill="#2E3A50"/>
  <path d="M14 6.5V5C14 4.46957 13.7893 3.96086 13.4142 3.58579C13.0391 3.21071 12.5304 3 12 3H7C6.46957 3 5.96086 3.21071 5.58579 3.58579C5.21071 3.96086 5 4.46957 5 5V6.5" stroke="#2E3A50" stroke-width="1.5" stroke-linecap="round" stroke-linejoin="round"/>
  <path d="M20 10.5H17.5C16.3954 10.5 15.5 11.3954 15.5 12.5C15.5 13.6046 16.3954 14.5 17.5 14.5H20" stroke="#2E3A50" stroke-width="1.5" stroke-linecap="round" stroke-linejoin="round"/>
</svg> 